<?xml version="1.0" encoding="UTF-8"?>
<svg width="128px" height="128px" viewBox="0 0 128 128" version="1.1" xmlns="http://www.w3.org/2000/svg" xmlns:xlink="http://www.w3.org/1999/xlink">
    <!-- Generator: Sketch 51.3 (57544) - http://www.bohemiancoding.com/sketch -->
    <title>favicon</title>
    <desc>Created with Sketch.</desc>
    <defs></defs>
    <g id="Page-1" stroke="none" stroke-width="1" fill="none" fill-rule="evenodd">
        <path d="M56.5161298,6.30800705 C60.3581297,19.929377 73.3552379,36.8923417 88.7649115,43.4950041 C104.174585,50.0976664 128,58.439405 128,76.5254951 C128,100.270313 105.300699,122.759487 54.8456554,119.347498 C24.0814321,117.267088 -1.61042143,101.549203 0.0788300563,70.4330526 C1.76808154,39.3169018 56.5161298,6.30800705 56.5161298,6.30800705 Z M53.9271575,22.0391305 C31.3368972,33.4745668 18.5909801,46.5712215 15.6894061,61.3290948 C12.5582047,77.2548896 31.6633132,90.2436801 53.9271575,90.2436801 C76.1910017,90.2436801 96.8392542,82.989108 96.8392542,69.460096 C96.8392542,58.3018412 74.5424406,58.7751763 53.9271575,39.6636768 C53.9271575,39.6636768 53.9271575,33.788828 53.9271575,22.0391305 Z" id="Combined-Shape" fill="#F7C100" fill-rule="nonzero"></path>
    </g>
</svg>