<?xml version="1.0" encoding="UTF-8"?>
<svg width="128px" height="114px" viewBox="0 0 128 114" version="1.1" xmlns="http://www.w3.org/2000/svg" xmlns:xlink="http://www.w3.org/1999/xlink">
    <!-- Generator: Sketch 51.3 (57544) - http://www.bohemiancoding.com/sketch -->
    <title>logo</title>
    <desc>Created with Sketch.</desc>
    <defs></defs>
    <g id="Page-1" stroke="none" stroke-width="1" fill="none" fill-rule="evenodd">
        <path d="M56.5161298,0.308007048 C60.3581297,13.929377 73.3552379,30.8923417 88.7649115,37.4950041 C104.174585,44.0976664 128,52.439405 128,70.5254951 C128,94.2703134 105.300699,116.759487 54.8456554,113.347498 C24.0814321,111.267088 -1.61042143,95.5492033 0.0788300563,64.4330526 C1.76808154,33.3169018 56.5161298,0.308007048 56.5161298,0.308007048 Z M53.9271575,16.0391305 C31.3368972,27.4745668 18.5909801,40.5712215 15.6894061,55.3290948 C12.5582047,71.2548896 31.6633132,84.2436801 53.9271575,84.2436801 C76.1910017,84.2436801 96.8392542,76.989108 96.8392542,63.460096 C96.8392542,52.3018412 74.5424406,52.7751763 53.9271575,33.6636768 C53.9271575,33.6636768 53.9271575,27.788828 53.9271575,16.0391305 Z" id="Combined-Shape" fill="#F7C100" fill-rule="nonzero"></path>
    </g>
</svg>